<svg xmlns="http://www.w3.org/2000/svg" x="0px" y="0px"
width="24" height="24"
viewBox="0 0 172 172"
style=" fill:#000000;"><g fill="none" fill-rule="nonzero" stroke="none" stroke-width="1" stroke-linecap="butt" stroke-linejoin="miter" stroke-miterlimit="10" stroke-dasharray="" stroke-dashoffset="0" font-family="none" font-weight="none" font-size="none" text-anchor="none" style="mix-blend-mode: normal"><path d="M0,172v-172h172v172z" fill="none"></path><g fill="#000000"><path d="M86,43c-31.18619,0 -59.76888,11.8418 -81.29687,31.13021c-6.29883,4.89909 -7.47461,13.9694 -2.57552,20.26823c4.89909,6.29883 13.9694,7.47461 20.26823,2.57552c5.23503,30.31836 31.83008,53.52604 63.60417,53.52604c31.85808,0 58.45313,-23.31966 63.60417,-53.75c6.27083,3.94726 14.50131,2.51953 19.06445,-3.33138c4.56315,-5.82292 3.97526,-14.16536 -1.37174,-19.28841c-21.52799,-19.28841 -50.11067,-31.13021 -81.29687,-31.13021zM50.83854,78.83333c-0.47591,2.32357 -0.67187,4.70313 -0.67187,7.16667c0,19.76433 16.06901,35.83333 35.83333,35.83333c19.76433,0 35.83333,-16.06901 35.83333,-35.83333c0,-2.46354 -0.19597,-4.8431 -0.67187,-7.16667c5.23503,2.1556 10.30208,4.56315 15.00521,7.61458c-0.25195,27.57487 -22.53581,49.71875 -50.16667,49.71875c-27.63086,0 -49.91472,-22.14388 -50.16667,-49.71875c4.70313,-3.05143 9.77018,-5.45899 15.00521,-7.61458z"></path></g></g></svg>