<svg xmlns="http://www.w3.org/2000/svg" x="0px" y="0px"
width="15" height="15"
viewBox="0 0 172 172"
style=" fill:#000000;"><g fill="none" fill-rule="nonzero" stroke="none" stroke-width="1" stroke-linecap="butt" stroke-linejoin="miter" stroke-miterlimit="10" stroke-dasharray="" stroke-dashoffset="0" font-family="none" font-weight="none" font-size="none" text-anchor="none" style="mix-blend-mode: normal"><path d="M0,172v-172h172v172z" fill="none"></path><g fill="#3498db"><path d="M86.51511,17.2c-28.42587,0 -44.54576,15.92621 -45.00443,38.97995v1.15339h25.09453v-1.15339c0.55039,-10.1824 7.5946,-16.75208 18.2414,-16.75208c10.55507,0 17.59193,6.1026 17.59193,14.71406c0,8.61146 -3.61138,13.05758 -15.55391,20.18985c-12.7796,7.4992 -17.8777,15.83376 -16.6737,30.6487l0.14557,3.95286h24.57943v-3.7625c0,-8.88667 3.42907,-13.43284 15.74427,-20.55938c13.0548,-7.68839 19.80911,-17.40631 19.80911,-31.29817c0,-21.39107 -17.49195,-36.11328 -43.97422,-36.11328zM83.17812,126.13333c-9.41986,0 -15.29635,5.46853 -15.29635,14.37812c0,8.82934 5.88222,14.28854 15.29635,14.28854c9.41413,0 15.21797,-5.45921 15.21797,-14.28854c0,-8.90959 -5.7981,-14.37812 -15.21797,-14.37812z"></path></g></g></svg>