<svg xmlns="http://www.w3.org/2000/svg" x="0px" y="0px"
width="500" height="500"
viewBox="0 0 172 172"
style=" fill:#000000;"><g fill="none" fill-rule="nonzero" stroke="none" stroke-width="1" stroke-linecap="butt" stroke-linejoin="miter" stroke-miterlimit="10" stroke-dasharray="" stroke-dashoffset="0" font-family="none" font-weight="none" font-size="none" text-anchor="none" style="mix-blend-mode: normal"><path d="M0,172v-172h172v172z" fill="none"></path><g fill="#56CCF2"><path d="M86,3.44c-29.48187,0 -54.20687,20.7475 -60.415,48.375c0.63156,-0.06719 1.29,-0.215 1.935,-0.215c1.76031,0 3.45344,0.36281 5.0525,0.86c5.83188,-24.12031 27.53344,-42.14 53.4275,-42.14c25.89406,0 47.59563,18.01969 53.4275,42.14c1.59906,-0.49719 3.29219,-0.86 5.0525,-0.86c0.645,0 1.30344,0.14781 1.935,0.215c-6.20812,-27.6275 -30.94656,-48.375 -60.415,-48.375zM27.52,58.48c-5.68406,0 -10.32,4.63594 -10.32,10.32v51.6c0,5.68406 4.63594,10.32 10.32,10.32c5.68406,0 10.32,-4.63594 10.32,-10.32v-51.6c0,-5.68406 -4.63594,-10.32 -10.32,-10.32zM144.48,58.48c-5.68406,0 -10.32,4.63594 -10.32,10.32v51.6c0,5.68406 4.63594,10.32 10.32,10.32c5.68406,0 10.32,-4.63594 10.32,-10.32v-51.6c0,-5.68406 -4.63594,-10.32 -10.32,-10.32zM10.32,69.23c-6.20812,4.98531 -10.32,14.33781 -10.32,25.37c0,11.03219 4.11188,20.38469 10.32,25.37zM161.68,69.23v50.74c6.20813,-4.98531 10.32,-14.33781 10.32,-25.37c0,-11.03219 -4.11187,-20.38469 -10.32,-25.37z"></path></g></g></svg>
