<svg xmlns="http://www.w3.org/2000/svg" x="0px" y="0px"
width="32" height="32"
viewBox="0 0 172 172"
style=" fill:#000000;"><g fill="none" fill-rule="nonzero" stroke="none" stroke-width="1" stroke-linecap="butt" stroke-linejoin="miter" stroke-miterlimit="10" stroke-dasharray="" stroke-dashoffset="0" font-family="none" font-weight="none" font-size="none" text-anchor="none" style="mix-blend-mode: normal"><path d="M0,172v-172h172v172z" fill="none"></path><g fill="#000000"><path d="M86,16.125c-38.52783,0 -69.875,31.34717 -69.875,69.875c0,38.52783 31.34717,69.875 69.875,69.875c38.52783,0 69.875,-31.34717 69.875,-69.875c0,-38.52783 -31.34717,-69.875 -69.875,-69.875zM86,26.875c32.71192,0 59.125,26.41309 59.125,59.125c0,32.71192 -26.41308,59.125 -59.125,59.125c-32.71191,0 -59.125,-26.41308 -59.125,-59.125c0,-32.71191 26.41309,-59.125 59.125,-59.125zM86,43c-14.78125,0 -26.875,12.09375 -26.875,26.875c0,8.14648 3.80029,15.39014 9.57422,20.32422c-12.09375,6.27783 -20.32422,18.91748 -20.32422,33.42578h10.75c0,-14.90722 11.96778,-26.875 26.875,-26.875c14.90723,0 26.875,11.96778 26.875,26.875h10.75c0,-14.5083 -8.23047,-27.14795 -20.32422,-33.42578c5.77393,-4.93408 9.57422,-12.17773 9.57422,-20.32422c0,-14.78125 -12.09375,-26.875 -26.875,-26.875zM86,53.75c8.96533,0 16.125,7.15967 16.125,16.125c0,8.96533 -7.15967,16.125 -16.125,16.125c-8.96533,0 -16.125,-7.15967 -16.125,-16.125c0,-8.96533 7.15967,-16.125 16.125,-16.125z"></path></g></g></svg>